<?xml version="1.0" encoding="utf-8"?>
<!-- Generator: Adobe Illustrator 22.0.0, SVG Export Plug-In . SVG Version: 6.00 Build 0)  -->
<svg version="1.1" id="Capa_1" xmlns="http://www.w3.org/2000/svg" xmlns:xlink="http://www.w3.org/1999/xlink" x="0px" y="0px"
	 viewBox="0 0 595.3 841.9" style="enable-background:new 0 0 595.3 841.9;" xml:space="preserve">
<style type="text/css">
	.st0{fill:#FA904E;}
	.st1{fill:#111110;}
	.st2{fill:#0F0A09;}
</style>
<g>
	<g>
		<path class="st0" d="M249.5,581.2c-2.5-2.5-6.1-2.9-9.2-4.3C179.9,549.3,145,503,141,436.5c-4.2-70.3,27.6-122.1,89-154.8
			c37.1-19.7,77.2-21.7,117.7-10.5c2.1,0.6,4.2,1.1,6.3,1.7c0.5,2.3-1,4.1-1.9,6c-6.7,15.7-13.5,31.4-20.3,47
			c-1.8,4.2-3.2,7.6,2.8,9.7c5.9,2.1,6.3,2.2,9.3-4.7c3-6.9,5.9-13.9,9-20.8c4.8-10.4,8.3-21.4,14.6-31.1
			c14.7,5.9,27.8,14.5,39.7,24.7c42.7,36.1,58.8,83.6,55.7,137.9c-2.3,39.9-20.2,73-48.2,101.1c-23.3,23.4-51.5,37-83.6,43.3
			c-1.6,0.3-3.2,0.8-4.7-0.1c0.7-3.8-1.9-4.6-4.7-5C297.6,577,273.5,576.7,249.5,581.2z M301.9,345.5c-10,1.9-18.1,12.2-19.1,23.8
			c-1.2,14.7,5.2,26,17.2,33.9c12.9,8.5,26.7,10.9,40.9,3.3c11.7-6.3,18.6-19.8,17-32c-2.1-15.5-11.9-26.6-27.3-30.7
			c-7-1.9-12,0.4-17,6c-3,3.4-3.1,5.3,0.3,7.9c2.1,1.6,2.2,3.8,0.6,5.7c-1.6,2.1-3.7,1.6-5.8,0.4c-0.8-0.5-1-2.1-2.5-1.5
			c-3,6-2,11.9,0.1,17.8c1,3,2,6.1-2.1,7.7c-3.9,1.5-5.8-1.2-7.1-4c-3.2-6.6-3.5-13.5-2.3-20.6C295.9,356.8,298.9,351.3,301.9,345.5
			z M276.5,416.6c-11.2,4.9-17,13.6-17.6,25.5c-1,19.2,14.9,36.7,35.3,39c14.3,1.6,26.5-2.7,34.8-14.9c7.7-11.5,7.7-23.8,0.7-35.7
			c-3.1-5.3-6.6-10.8-13.4-11.5c-5.7-0.6-10.9-2.2-16-4.5c-3.2-1.4-5.9-1.1-8.2,1.8c-1.6,2-3.2,3.9-4.8,5.8
			c-1.9,2.4-2.3,4.3,1.1,5.8c2.5,1.1,3.5,3.2,2,5.7c-1.3,2.2-3.3,2.9-5.5,1.5c-3.4-2.2-3.9,0-4.2,2.6c-0.5,5,0.8,9.6,2.5,14.2
			c1.1,2.8,1.7,5.8-2,7.3c-3.4,1.4-5.5-0.6-7.1-3.2c-2.1-3.4-3-7.3-3.6-11.2C269.2,434.7,272.5,425.7,276.5,416.6z M253,487
			c-0.6-0.1-1.1-0.3-1.6-0.2c-0.5,0.1-1,0.3-1.5,0.5c-6.7,4.7-11.8,10.6-13.9,18.7c-7.3,27.5,17.8,52.6,46.6,46.6
			c14-2.9,22.5-11.5,26.5-24.8c3.9-12.9-0.4-23.7-9-33.3c-2.4-2.6-5.3-4.4-8.9-4.6c-5.3-0.3-10.3-1.8-14.9-4.4c-3.6-2-6.5-1.4-9,1.8
			c-1.3,1.7-2.8,3.3-4.1,5c-2,2.6-3.1,4.9,1,6.8c2.6,1.2,3,3.6,1.8,6c-1.2,2.4-3.3,2.5-5.5,1.3c-3.4-1.8-4,0.1-4.2,2.9
			c-0.5,5.6,1,10.7,3,15.8c0.8,2.2,0.9,4.3-1.2,5.9c-1.7,1.3-3.6,1.6-5.6,0.4c-1.8-1.1-2.6-2.9-3.5-4.7c-5-11.1-4.1-22,1.1-32.8
			C251.2,491.6,252.9,489.7,253,487z"/>
		<path class="st1" d="M489.6,376.1c-17.7-58.9-54-101.7-110.5-126.4c-43.3-18.9-87.6-20.8-132.7-7.2
			c-86.9,26.1-145.8,113.2-136.8,202.9c5.5,54.3,29.6,99.1,71.9,133.5c42.4,34.5,91.5,47.2,145.8,42c-2.9,9.4-8.9,13.1-18.2,13.4
			c-85.8,2.8-166.6-48.5-197.4-128.6c-22-57.1-22.9-115.4,6.3-170.4c30.8-58.2,78.2-97.3,144.3-109.6
			c82.2-15.3,149.9,11.2,203.3,74.9c13.2,15.7,22.5,33.9,30,53C499.7,364,498.8,367.7,489.6,376.1z"/>
		<path class="st1" d="M367.6,279.1c-6.3,9.7-9.8,20.7-14.6,31.1c-3.2,6.9-6,13.9-9,20.8c-3,6.9-3.4,6.8-9.3,4.7
			c-5.9-2.1-4.6-5.5-2.8-9.7c6.9-15.6,13.6-31.3,20.3-47c0.8-1.9,2.3-3.7,1.9-6c2.9-2.9,3.7-6.9,5.5-10.4c1.9-3.7,4.3-6.4,8.9-4.6
			c4.7,1.9,4.3,5.5,3.1,9.5C370.4,271.4,367.5,274.7,367.6,279.1z"/>
		<path class="st1" d="M503,483.3c2,0.7,5.6-2.4,5.8,2c0.2,3.7-1.3,7.6-5.8,7.8c-4.5,0.2-7.1,1.7-7.9,6.2c-1,5.8-6.3,11.7,1.3,17
			c3.8,2.7,2.1,6.5,1,9.8c-0.7,1.8-2.3,1.1-3.6,0.1c-11-8.8-21.9-17.6-32.9-26.3c-3.1-2.4-1.1-5.4-0.6-8c0.6-3.2,3.4-3.9,6.2-4.2
			C478.6,486.3,490.8,484.8,503,483.3z M472.1,496.9c3.1,2.6,5,4.3,7.1,5.9c1.5,1.1,3,3.3,5,1.3c2-2,2.6-4.9,2-7.5
			c-0.5-2.4-3-1.3-4.6-1.2C478.8,495.6,476.1,496.2,472.1,496.9z"/>
		<path class="st1" d="M367,619.5c0.9-0.1,1.8-0.2,2.7-0.2c8-0.3,11.9,1.6,13.8,6.9c2.1,5.5,0.4,11.8-5,15.9
			c-6.2,4.8-13.2,6.7-20.7,3.2c-1.7-0.8-4.9-1.3-3.5-4.3c1.2-2.7,2.8-6,6.9-4.4c3.8,1.5,7.3,2,10.7-0.8c1.6-1.3,3.2-2.6,2.4-4.9
			c-0.7-2.1-2.7-2.2-4.5-2.2c-4,0.1-7.9,0.3-11.9,0.3c-8.3-0.2-13.6-7.9-11-15.9c3-9.3,15.1-14.5,24.1-10.4c1.7,0.8,2.9,1.5,1.9,3.6
			c-1.1,2.2-1.9,5-5.3,4.4c-2.9-0.5-5.7-1.1-8.4,0.5c-2.1,1.3-4,2.8-3.5,5.5c0.5,3,3.1,3.1,5.5,3.1c2,0,4,0,5.9,0
			C367,619.6,367,619.6,367,619.5z"/>
		<path class="st1" d="M446,576.7c-2.3,1.8,0.3,2.8,0.9,3.8c5.3,8.6,3.6,16.9-4.8,22.4c-3.3,2.2-6.8,4.2-8.9,7.7
			c-1.6,2.6-3.1,1.9-4.7,0.1c-8.7-9.6-17.3-19.3-26-28.9c-2.1-2.3-0.9-3.8,0.9-5.4c1.7-1.6,3.3-3,5.4-0.6c0.3,0.4,0.7,0.8,1.1,1.2
			c2.3,2.5,4.4,6.5,7.1,7.1c3.3,0.7,3.8-4.6,6.2-6.8c5.5-4.8,12.1-5.3,18.3-1c1.2,0.8,2.8,2.6,4.5,0.5L446,576.7z M441.6,590.1
			c-0.1-4.5-4.5-8.7-8.8-8.4c-4.3,0.2-8.7,4.4-8.6,8.1c0.1,4.1,4.8,8.7,8.7,8.7C437.7,598.5,441.7,594.5,441.6,590.1z"/>
		<path class="st1" d="M249.5,581.2c24.1-4.5,48.2-4.2,72.3-0.2c2.8,0.5,5.4,1.2,4.7,5c-5.1,2.6-10.8,2.3-16.2,2.9
			c-17.8,1.9-35.5,1.5-53.2-0.8c-2.1-0.3-4.2-0.8-6.3-1.3C246.6,585.7,245.9,583.9,249.5,581.2z"/>
		<path class="st1" d="M402.5,630.5c-10.1-0.2-16.7-6.4-17.8-15.6c-1-8,3.6-14.4,12-16.7c2.3-0.6,4.5-1.2,6.1-3.2
			c2.5-3.2,5.1-2.5,7,0.5c4.2,6.5,8.4,13,12.1,19.8c1.7,3.1,1.1,6.3-3.4,6.3c-2.8,0-4.2,1.7-5.6,3.6
			C410,629.1,405.8,630.5,402.5,630.5z M409.9,614.3c0-4.6-4.3-9.6-8.5-9.7c-4-0.1-8.2,4.1-8.3,8.4c-0.1,4.9,3.8,9,8.8,9.1
			C406.3,622.1,409.9,618.6,409.9,614.3z"/>
		<path class="st1" d="M505.9,401.1c-0.9,2.2,0.4,4,1.4,5.9c3.4,6.2,2.6,12.4-1.8,17.5c-4.2,4.8-12.1,6.8-18.3,4.7
			c-6.4-2.2-10.2-7.4-10.3-14.3c0-3.9,0.5-7.8-1.7-11.5c-1.4-2.3,0.2-3.8,2.5-4.2c7.8-1.5,15.5-3,23.3-4.2
			C505.5,394.3,507,396.8,505.9,401.1z M492.7,405.6c-5.3,0.1-8.9,3.4-8.9,8c0.1,4.5,4.1,8.1,9,8c4.9-0.2,8.6-3.9,8.5-8.5
			C501.3,408.6,497.8,405.6,492.7,405.6z"/>
		<path class="st1" d="M446.1,576.8c0.8-1.9-1.1-2.4-1.8-3.4c-4.7-6.8-4.2-15.6,1.3-21.3c5.8-5.8,14.7-6.2,21.6-1
			c6.3,4.8,8.1,13.2,4.3,20.3c-3.6,6.5-12.6,9.5-20.3,7c-1.7-0.6-3-2.7-5.2-1.7C446,576.7,446.1,576.8,446.1,576.8z M456.3,555.9
			c-4.2-0.2-7.6,2.7-7.8,6.6c-0.2,4.2,4.6,9,9.1,9.1c4.1,0.1,7.4-2.7,7.6-6.8C465.4,560.2,461.3,556.1,456.3,555.9z"/>
		<path class="st1" d="M511.2,462.9c0,3.2-1.2,6-3,8.5c-1,1.4-2.2,3.4-4.2,2.4c-2.2-1.1-2.7-3.3-1.9-5.6c0.5-1.5,1.2-3,1.5-4.6
			c0.3-1.4-0.3-2.6-1.6-3.1c-1.5-0.6-2.4,0.4-2.9,1.7c-0.8,2-1.3,4.2-2.4,6c-2,3.5-4.7,5.9-9.3,4.8c-5-1.2-8.1-4.7-8.4-9.9
			c-0.2-4.5,1.4-8.1,5.6-10.2c2.2-1.1,2.9,0.1,3.4,1.8c0.5,1.9,0.1,3.6-0.9,5.2c-0.9,1.5-1.5,3.2,0.5,4.1c2.4,1.1,3.1-0.9,3.9-2.5
			c0.4-0.8,0.6-1.7,1-2.5c2.3-5.8,5.8-8.5,10.2-7.8C507.4,451.9,511.2,457.2,511.2,462.9z"/>
		<path class="st1" d="M486,546.5c0,3.5-3.9,6.2-6.9,4.7c-7.1-3.6-14.1-7.3-21.1-11c-2.7-1.4-2.9-6.1,0.2-7.2
			c3.6-1.3,3.2-3.5,3.3-6.2c0.1-1.7,0.9-3.4,1.6-5.1c0.9-2.1,2.3-3.2,4.6-1.7c1.9,1.2,3.6,2.2,2.7,5.1c-3.1,9.8-2.7,10.5,6.6,15.3
			c2.2,1.2,4.5,2.4,6.7,3.5C485,544.4,486,545,486,546.5z"/>
		<path class="st1" d="M496.2,435.7c3.6-0.2,7.2-0.4,10.8-0.6c3.6-0.2,4.6,1.6,4.7,4.9c0.1,3.4-1.3,4.4-4.4,4.4
			c-7.5,0.1-15.1,0.4-22.6,0.6c-2.8,0.1-5-0.4-5.1-3.9c-0.1-3.3,1.5-5.1,4.8-5.2c4-0.1,7.9,0,11.9,0
			C496.2,435.8,496.2,435.8,496.2,435.7z"/>
		<path class="st1" d="M471.1,445.8c-2.8-0.2-4.5-1.4-4.6-4.3c0-2.5,1.1-4.2,3.8-4.4c2.7-0.2,4.7,1.3,4.9,3.9
			C475.3,443.6,473.7,445.3,471.1,445.8z"/>
		<path class="st2" d="M301.9,345.5c-3,5.8-6.1,11.2-7.1,17.5c-1.2,7.1-0.9,14,2.3,20.6c1.4,2.8,3.3,5.5,7.1,4
			c4.1-1.6,3.1-4.7,2.1-7.7c-2-5.9-3.1-11.9-0.1-17.8c1.5-0.6,1.7,1,2.5,1.5c2.1,1.2,4.2,1.7,5.8-0.4c1.5-1.9,1.5-4.1-0.6-5.7
			c-3.4-2.6-3.3-4.5-0.3-7.9c5-5.5,10-7.8,17-6c15.4,4.1,25.2,15.2,27.3,30.7c1.6,12.2-5.3,25.7-17,32c-14.2,7.6-28,5.2-40.9-3.3
			c-12-7.9-18.4-19.1-17.2-33.9C283.8,357.7,292,347.4,301.9,345.5z"/>
		<path class="st2" d="M276.5,416.6c-4,9.1-7.3,18.1-6,28.2c0.5,4,1.5,7.8,3.6,11.2c1.6,2.6,3.8,4.6,7.1,3.2c3.7-1.5,3-4.5,2-7.3
			c-1.7-4.6-3.1-9.2-2.5-14.2c0.3-2.6,0.7-4.8,4.2-2.6c2.2,1.4,4.2,0.7,5.5-1.5c1.5-2.5,0.5-4.7-2-5.7c-3.5-1.5-3.1-3.5-1.1-5.8
			c1.6-2,3.3-3.8,4.8-5.8c2.3-2.9,5-3.2,8.2-1.8c5.1,2.3,10.4,3.9,16,4.5c6.8,0.8,10.4,6.2,13.4,11.5c7,12,7,24.2-0.7,35.7
			c-8.2,12.3-20.4,16.6-34.8,14.9c-20.4-2.3-36.3-19.9-35.3-39C259.5,430.2,265.3,421.5,276.5,416.6z"/>
		<path class="st2" d="M253,487c-0.1,2.7-1.8,4.7-2.8,6.9c-5.2,10.8-6.1,21.7-1.1,32.8c0.8,1.8,1.7,3.6,3.5,4.7
			c1.9,1.2,3.9,0.9,5.6-0.4c2.1-1.5,2-3.7,1.2-5.9c-2-5.1-3.5-10.2-3-15.8c0.2-2.8,0.9-4.7,4.2-2.9c2.2,1.2,4.3,1.1,5.5-1.3
			c1.2-2.4,0.9-4.8-1.8-6c-4.1-1.8-3-4.2-1-6.8c1.3-1.7,2.8-3.3,4.1-5c2.5-3.2,5.4-3.8,9-1.8c4.6,2.6,9.6,4.1,14.9,4.4
			c3.6,0.2,6.5,1.9,8.9,4.6c8.6,9.6,12.9,20.4,9,33.3c-4,13.3-12.6,21.9-26.5,24.8c-28.8,5.9-53.9-19.1-46.6-46.6
			c2.1-8.1,7.2-14,13.9-18.7c0.4-0.3,1-0.5,1.5-0.5C251.9,486.7,252.4,486.9,253,487z"/>
	</g>
</g>
</svg>
